# xmcd
#
# Track frame offsets:
#	150
#	20875
#	47942
#	75832
#	93855
#	121210
#	146145
#	171115
#	195335
#	213915
#
# Disc length: 3116 seconds
#
# Revision: 2
# Processed by: cddbd v1.5.2PL0 Copyright (c) Steve Scherf et al.
# Submitted via: EZCDAudioConverter 8.0.2.1
#
DISCID=7f0c2a0a
DTITLE=Chế Linh, Hương Lan - Nhà Anh Nhà Em
DYEAR=1993
DGENRE=Miscellaneous
TTITLE0=Chế Linh, Hương Lan - Người tình
TTITLE1=Hương Lan - Bài thơ cuối cùng
TTITLE2=Chế Linh - Đồi thông hai mộ
TTITLE3=Hương Lan - Hai cánh phượng buồn
TTITLE4=Chế Linh - Đám cưới đầu xuân
TTITLE5=Chế Linh, Hương Lan - Dấu chân kỷ niệm
TTITLE6=Hương Lan - Biển sầu
TTITLE7=Chế Linh - Định Mệnh
TTITLE8=Hương Lan - Mưa rừng
TTITLE9=Chế Linh - Nhà Anh Nhà Em
EXTD=
EXTT0=
EXTT1=
EXTT2=
EXTT3=
EXTT4=
EXTT5=
EXTT6=
EXTT7=
EXTT8=
EXTT9=
PLAYORDER=
